{
  "asset": {
    "generator": "glTF Exporter addin for Revit",
    "version": "2.0"
  },
  "accessors": [
    {
      "bufferView": 0,
      "componentType": 5126,
      "count": 3384,
      "type": "VEC3",
      "max": [
        -5.7037248611450195,
        0.7012696862220764,
        8.759842872619629
      ],
      "min": [
        -15.546244621276855,
        -0.14521780610084534,
        -0.09842519462108612
      ],
      "byteOffset": 0
    },
    {
      "bufferView": 1,
      "componentType": 5126,
      "count": 3384,
      "type": "VEC3",
      "max": [
        1,
        1,
        1
      ],
      "min": [
        -1,
        -1,
        -1
      ],
      "byteOffset": 0
    },
    {
      "bufferView": 2,
      "componentType": 5123,
      "count": 9408,
      "type": "SCALAR",
      "max": [
        3383
      ],
      "min": [
        0
      ],
      "byteOffset": 0
    },
    {
      "bufferView": 3,
      "componentType": 5126,
      "count": 72,
      "type": "VEC3",
      "max": [
        -5.922884941101074,
        0.6068798899650574,
        8.499671936035156
      ],
      "min": [
        -15.3270845413208,
        0.16334524750709534,
        0
      ],
      "byteOffset": 0
    },
    {
      "bufferView": 4,
      "componentType": 5126,
      "count": 72,
      "type": "VEC3",
      "max": [
        1,
        1,
        1
      ],
      "min": [
        -1,
        -1,
        -1
      ],
      "byteOffset": 0
    },
    {
      "bufferView": 5,
      "componentType": 5123,
      "count": 108,
      "type": "SCALAR",
      "max": [
        71
      ],
      "min": [
        0
      ],
      "byteOffset": 0
    },
    {
      "bufferView": 6,
      "componentType": 5126,
      "count": 1864,
      "type": "VEC3",
      "max": [
        -5.7037248611450195,
        0.7012696862220764,
        8.759842872619629
      ],
      "min": [
        -15.546244621276855,
        -0.14497628808021545,
        -0.09842519462108612
      ],
      "byteOffset": 0
    },
    {
      "bufferView": 7,
      "componentType": 5126,
      "count": 1864,
      "type": "VEC3",
      "max": [
        1,
        1,
        1
      ],
      "min": [
        -1,
        -1,
        -1
      ],
      "byteOffset": 0
    },
    {
      "bufferView": 8,
      "componentType": 5123,
      "count": 4080,
      "type": "SCALAR",
      "max": [
        1863
      ],
      "min": [
        0
      ],
      "byteOffset": 0
    },
    {
      "bufferView": 9,
      "componentType": 5126,
      "count": 72,
      "type": "VEC3",
      "max": [
        -5.922884941101074,
        0.6068798899650574,
        8.499671936035156
      ],
      "min": [
        -15.3270845413208,
        0.16334524750709534,
        0
      ],
      "byteOffset": 0
    },
    {
      "bufferView": 10,
      "componentType": 5126,
      "count": 72,
      "type": "VEC3",
      "max": [
        1,
        1,
        1
      ],
      "min": [
        -1,
        -1,
        -1
      ],
      "byteOffset": 0
    },
    {
      "bufferView": 11,
      "componentType": 5123,
      "count": 108,
      "type": "SCALAR",
      "max": [
        71
      ],
      "min": [
        0
      ],
      "byteOffset": 0
    },
    {
      "bufferView": 12,
      "componentType": 5126,
      "count": 1516,
      "type": "VEC3",
      "max": [
        -5.7037248611450195,
        0.7012696862220764,
        8.759842872619629
      ],
      "min": [
        -15.546244621276855,
        -0.14497628808021545,
        -0.09842519462108612
      ],
      "byteOffset": 0
    },
    {
      "bufferView": 13,
      "componentType": 5126,
      "count": 1516,
      "type": "VEC3",
      "max": [
        1,
        1,
        1
      ],
      "min": [
        -1,
        -1,
        -1
      ],
      "byteOffset": 0
    },
    {
      "bufferView": 14,
      "componentType": 5123,
      "count": 3036,
      "type": "SCALAR",
      "max": [
        1515
      ],
      "min": [
        0
      ],
      "byteOffset": 0
    },
    {
      "bufferView": 15,
      "componentType": 5126,
      "count": 72,
      "type": "VEC3",
      "max": [
        -5.922884941101074,
        0.6068798899650574,
        8.499671936035156
      ],
      "min": [
        -15.3270845413208,
        0.16334524750709534,
        0
      ],
      "byteOffset": 0
    },
    {
      "bufferView": 16,
      "componentType": 5126,
      "count": 72,
      "type": "VEC3",
      "max": [
        1,
        1,
        1
      ],
      "min": [
        -1,
        -1,
        -1
      ],
      "byteOffset": 0
    },
    {
      "bufferView": 17,
      "componentType": 5123,
      "count": 108,
      "type": "SCALAR",
      "max": [
        71
      ],
      "min": [
        0
      ],
      "byteOffset": 0
    }
  ],
  "bufferViews": [
    {
      "buffer": 0,
      "byteOffset": 0,
      "byteLength": 40608,
      "target": 34962,
      "byteStride": 12
    },
    {
      "buffer": 0,
      "byteOffset": 40608,
      "byteLength": 40608,
      "target": 34962,
      "byteStride": 12
    },
    {
      "buffer": 0,
      "byteOffset": 81216,
      "byteLength": 18816,
      "target": 34963
    },
    {
      "buffer": 0,
      "byteOffset": 100032,
      "byteLength": 864,
      "target": 34962,
      "byteStride": 12
    },
    {
      "buffer": 0,
      "byteOffset": 100896,
      "byteLength": 864,
      "target": 34962,
      "byteStride": 12
    },
    {
      "buffer": 0,
      "byteOffset": 101760,
      "byteLength": 216,
      "target": 34963
    },
    {
      "buffer": 0,
      "byteOffset": 101976,
      "byteLength": 22368,
      "target": 34962,
      "byteStride": 12
    },
    {
      "buffer": 0,
      "byteOffset": 124344,
      "byteLength": 22368,
      "target": 34962,
      "byteStride": 12
    },
    {
      "buffer": 0,
      "byteOffset": 146712,
      "byteLength": 8160,
      "target": 34963
    },
    {
      "buffer": 0,
      "byteOffset": 154872,
      "byteLength": 864,
      "target": 34962,
      "byteStride": 12
    },
    {
      "buffer": 0,
      "byteOffset": 155736,
      "byteLength": 864,
      "target": 34962,
      "byteStride": 12
    },
    {
      "buffer": 0,
      "byteOffset": 156600,
      "byteLength": 216,
      "target": 34963
    },
    {
      "buffer": 0,
      "byteOffset": 156816,
      "byteLength": 18192,
      "target": 34962,
      "byteStride": 12
    },
    {
      "buffer": 0,
      "byteOffset": 175008,
      "byteLength": 18192,
      "target": 34962,
      "byteStride": 12
    },
    {
      "buffer": 0,
      "byteOffset": 193200,
      "byteLength": 6072,
      "target": 34963
    },
    {
      "buffer": 0,
      "byteOffset": 199272,
      "byteLength": 864,
      "target": 34962,
      "byteStride": 12
    },
    {
      "buffer": 0,
      "byteOffset": 200136,
      "byteLength": 864,
      "target": 34962,
      "byteStride": 12
    },
    {
      "buffer": 0,
      "byteOffset": 201000,
      "byteLength": 216,
      "target": 34963
    }
  ],
  "buffers": [
    {
      "name": "window",
      "byteLength": 201216,
      "uri": "data:application/octet-stream;base64,"
    }
  ],
  "materials": [
    {
      "pbrMetallicRoughness": {
        "baseColorFactor": [
          0.09337947517633438,
          0.09550173580646515,
          0.0969165787100792,
          1
        ],
        "metallicFactor": 0.8999999761581421,
        "roughnessFactor": 0.25
      },
      "name": "Aluminum- Klil-Black",
      "doubleSided": true,
      "emissiveFactor": [
        0,
        0,
        0
      ],
      "alphaMode": "OPAQUE"
    },
    {
      "pbrMetallicRoughness": {
        "baseColorFactor": [
          1,
          1,
          1,
          0.25
        ],
        "metallicFactor": 0.15000000596046448,
        "roughnessFactor": 1
      },
      "alphaMode": "BLEND",
      "name": "Glass-Klil-Clear",
      "doubleSided": true,
      "emissiveFactor": [
        0,
        0,
        0
      ]
    },
    {
      "pbrMetallicRoughness": {
        "baseColorFactor": [
          0.09337947517633438,
          0.09550173580646515,
          0.0969165787100792,
          1
        ],
        "metallicFactor": 0.8999999761581421,
        "roughnessFactor": 0.25
      },
      "name": "Aluminum- Klil-Black_lod1",
      "doubleSided": true,
      "emissiveFactor": [
        0,
        0,
        0
      ],
      "alphaMode": "OPAQUE"
    },
    {
      "pbrMetallicRoughness": {
        "baseColorFactor": [
          1,
          1,
          1,
          0.25
        ],
        "metallicFactor": 0.15000000596046448,
        "roughnessFactor": 1
      },
      "alphaMode": "BLEND",
      "name": "Glass-Klil-Clear_lod1",
      "doubleSided": true,
      "emissiveFactor": [
        0,
        0,
        0
      ]
    },
    {
      "pbrMetallicRoughness": {
        "baseColorFactor": [
          0.09337947517633438,
          0.09550173580646515,
          0.0969165787100792,
          1
        ],
        "metallicFactor": 0.8999999761581421,
        "roughnessFactor": 0.25
      },
      "name": "Aluminum- Klil-Black_lod2",
      "doubleSided": true,
      "emissiveFactor": [
        0,
        0,
        0
      ],
      "alphaMode": "OPAQUE"
    },
    {
      "pbrMetallicRoughness": {
        "baseColorFactor": [
          1,
          1,
          1,
          0.25
        ],
        "metallicFactor": 0.15000000596046448,
        "roughnessFactor": 1
      },
      "alphaMode": "BLEND",
      "name": "Glass-Klil-Clear_lod2",
      "doubleSided": true,
      "emissiveFactor": [
        0,
        0,
        0
      ]
    }
  ],
  "meshes": [
    {
      "primitives": [
        {
          "attributes": {
            "NORMAL": 1,
            "POSITION": 0
          },
          "indices": 2,
          "material": 0,
          "mode": 4
        }
      ]
    },
    {
      "primitives": [
        {
          "attributes": {
            "POSITION": 3,
            "NORMAL": 4
          },
          "indices": 5,
          "material": 1,
          "mode": 4
        }
      ]
    },
    {
      "name": "_lod1",
      "primitives": [
        {
          "attributes": {
            "POSITION": 6,
            "NORMAL": 7
          },
          "indices": 8,
          "material": 2,
          "mode": 4
        }
      ]
    },
    {
      "name": "_lod1",
      "primitives": [
        {
          "attributes": {
            "POSITION": 9,
            "NORMAL": 10
          },
          "indices": 11,
          "material": 3,
          "mode": 4
        }
      ]
    },
    {
      "name": "_lod2",
      "primitives": [
        {
          "attributes": {
            "POSITION": 12,
            "NORMAL": 13
          },
          "indices": 14,
          "material": 4,
          "mode": 4
        }
      ]
    },
    {
      "name": "_lod2",
      "primitives": [
        {
          "attributes": {
            "NORMAL": 16,
            "POSITION": 15
          },
          "indices": 17,
          "material": 5,
          "mode": 4
        }
      ]
    }
  ],
  "nodes": [
    {
      "children": [
        1,
        2
      ],
      "rotation": [
        0.7071067690849304,
        0,
        0,
        -0.7071067690849304
      ],
      "scale": [
        0.30480000376701355,
        0.30480000376701355,
        0.30480000376701355
      ],
      "name": "Root",
      "extensions": {
        "MSFT_lod": {
          "ids": [
            3,
            6
          ]
        }
      },
      "translation": [
        0,
        0,
        0
      ]
    },
    {
      "mesh": 0,
      "name": "Aluminum- Klil-Black"
    },
    {
      "mesh": 1,
      "name": "Glass-Klil-Clear"
    },
    {
      "children": [
        4,
        5
      ],
      "rotation": [
        0.7071067690849304,
        0,
        0,
        -0.7071067690849304
      ],
      "scale": [
        0.30480000376701355,
        0.30480000376701355,
        0.30480000376701355
      ],
      "name": "Root_lod1",
      "translation": [
        0,
        0,
        0
      ]
    },
    {
      "mesh": 2,
      "name": "Aluminum- Klil-Black_lod1"
    },
    {
      "mesh": 3,
      "name": "Glass-Klil-Clear_lod1"
    },
    {
      "children": [
        7,
        8
      ],
      "rotation": [
        0.7071067690849304,
        0,
        0,
        -0.7071067690849304
      ],
      "scale": [
        0.30480000376701355,
        0.30480000376701355,
        0.30480000376701355
      ],
      "name": "Root_lod2",
      "translation": [
        0,
        0,
        0
      ]
    },
    {
      "mesh": 4,
      "name": "Aluminum- Klil-Black_lod2"
    },
    {
      "mesh": 5,
      "name": "Glass-Klil-Clear_lod2"
    }
  ],
  "scenes": [
    {
      "nodes": [
        0
      ]
    }
  ],
  "scene": 0,
  "extensionsUsed": [
    "MSFT_lod"
  ]
}
